<svg width="64" height="64" viewBox="0 0 64 64" fill="none" xmlns="http://www.w3.org/2000/svg">
  <rect width="64" height="64" rx="14" fill="#0A7D71"></rect>

  <!-- Vision / scan frame -->
  <path d="M17 24C20.2 20.1 24.8 18 32 18C39.2 18 43.8 20.1 47 24" stroke="white" stroke-width="2.5" stroke-linecap="round" opacity="0.9"></path>
  <path d="M17 40C20.2 43.9 24.8 46 32 46C39.2 46 43.8 43.9 47 40" stroke="white" stroke-width="2.5" stroke-linecap="round" opacity="0.9"></path>

  <!-- Heart -->
  <path d="M32 42C29.2 39.6 22 33.5 22 27.5C22 24.5 24.2 22 27.1 22C29.1 22 30.8 23.1 32 24.8C33.2 23.1 34.9 22 36.9 22C39.8 22 42 24.5 42 27.5C42 33.5 34.8 39.6 32 42Z" fill="white"></path>

  <!-- Cardiac signal -->
  <path d="M20 32H25L27.5 28L30.5 36L34 27L37 32H44" stroke="#0A7D71" stroke-width="2" stroke-linecap="round" stroke-linejoin="round"></path>

  <!-- Central AI node -->
  <circle cx="32" cy="32" r="2.2" fill="white"></circle>
</svg>